<svg preserveAspectRatio="none" width="100%" height="100%" overflow="visible" style="display: block;" viewBox="0 0 30 27" fill="none" xmlns="http://www.w3.org/2000/svg">
<path id="Icon" d="M0 27V24C0.95 24 1.8 23.8187 2.55 23.4562C3.3 23.0937 4.1125 22.5875 4.9875 21.9375C5.7375 22.5625 6.55625 23.0563 7.44375 23.4188C8.33125 23.7813 9.1875 23.9625 10.0125 23.9625C10.8375 23.9625 11.7 23.7875 12.6 23.4375C13.5 23.0875 14.3125 22.5875 15.0375 21.9375C15.8375 22.6375 16.6625 23.15 17.5125 23.475C18.3625 23.8 19.2125 23.9625 20.0625 23.9625C20.8875 23.9625 21.6938 23.8 22.4813 23.475C23.2688 23.15 24.1375 22.6375 25.0875 21.9375C26.0625 22.6875 26.925 23.2188 27.675 23.5312C28.425 23.8438 29.2 24 30 24V27C29.125 27 28.2812 26.8812 27.4688 26.6437C26.6562 26.4062 25.8625 26.0625 25.0875 25.6125C24.2875 26.1125 23.4563 26.4687 22.5938 26.6812C21.7312 26.8937 20.8875 27 20.0625 27C19.2375 27 18.3938 26.8937 17.5312 26.6812C16.6687 26.4687 15.8375 26.1125 15.0375 25.6125C14.3125 26.0875 13.5125 26.4375 12.6375 26.6625C11.7625 26.8875 10.8875 27 10.0125 27C9.1625 27 8.3125 26.8875 7.4625 26.6625C6.6125 26.4375 5.7875 26.0875 4.9875 25.6125C4.2125 26.0625 3.40625 26.4062 2.56875 26.6437C1.73125 26.8812 0.875 27 0 27V27M0 20.25V17.25C0 14.825 0.46875 12.5625 1.40625 10.4625C2.34375 8.3625 3.625 6.5375 5.25 4.9875C6.875 3.4375 8.78125 2.21875 10.9688 1.33125C13.1562 0.44375 15.5 0 18 0C18.825 0 19.6437 0.04375 20.4562 0.13125C21.2687 0.21875 22 0.3375 22.65 0.4875C22.125 1.2875 21.7187 2.13125 21.4312 3.01875C21.1437 3.90625 21 4.7375 21 5.5125C21 6.8875 21.4875 8.0625 22.4625 9.0375C23.4375 10.0125 24.6125 10.5 25.9875 10.5H30V13.5H25.9875C23.7625 13.5 21.875 12.725 20.325 11.175C18.775 9.625 18 7.7375 18 5.5125C18 5.1625 18.025 4.79375 18.075 4.40625C18.125 4.01875 18.2 3.6375 18.3 3.2625C16.45 3.7125 14.9375 4.66875 13.7625 6.13125C12.5875 7.59375 12 9.3 12 11.25C12 12.15 12.1437 13.0063 12.4312 13.8188C12.7187 14.6313 13.125 15.4 13.65 16.125C13.85 16 14.0625 15.8563 14.2875 15.6938C14.5125 15.5313 14.75 15.3625 15 15.1875C15.725 15.8375 16.5625 16.3375 17.5125 16.6875C18.4625 17.0375 19.3125 17.2125 20.0625 17.2125C20.8125 17.2125 21.65 17.0313 22.575 16.6688C23.5 16.3063 24.3375 15.8125 25.0875 15.1875C25.8875 15.7875 26.6812 16.2813 27.4688 16.6688C28.2563 17.0563 29.1 17.25 30 17.25V20.25C29.125 20.25 28.2812 20.1312 27.4688 19.8937C26.6562 19.6562 25.8625 19.3125 25.0875 18.8625C24.2875 19.3625 23.475 19.7187 22.65 19.9312C21.825 20.1437 20.9625 20.25 20.0625 20.25C19.1625 20.25 18.2625 20.125 17.3625 19.875C16.4625 19.625 15.6875 19.2875 15.0375 18.8625C14.2625 19.3375 13.45 19.6812 12.6 19.8937C11.75 20.1062 10.8875 20.225 10.0125 20.25C9.1375 20.275 8.275 20.1625 7.425 19.9125C6.575 19.6625 5.7625 19.3125 4.9875 18.8625C4.2125 19.3125 3.40625 19.6562 2.56875 19.8937C1.73125 20.1312 0.875 20.25 0 20.25V20.25M9.9375 17.2125C10.0625 17.2125 10.1875 17.2125 10.3125 17.2125C10.4375 17.2125 10.5625 17.2 10.6875 17.175C10.1375 16.3 9.71875 15.3625 9.43125 14.3625C9.14375 13.3625 9 12.325 9 11.25C9 9.225 9.4625 7.39375 10.3875 5.75625C11.3125 4.11875 12.6 2.775 14.25 1.725V3.375C12.7 3.775 11.2688 4.38125 9.95625 5.19375C8.64375 6.00625 7.49375 6.9875 6.50625 8.1375C5.51875 9.2875 4.725 10.5687 4.125 11.9812C3.525 13.3937 3.1625 14.9 3.0375 16.5V16.5C3.4125 16.275 3.7375 16.075 4.0125 15.9C4.2875 15.725 4.6125 15.4875 4.9875 15.1875C5.9125 15.8625 6.75 16.3687 7.5 16.7062C8.25 17.0437 9.0625 17.2125 9.9375 17.2125V17.2125M7.125 10.9125V10.9125V10.9125V10.9125V10.9125V10.9125V10.9125V10.9125V10.9125V10.9125V10.9125V10.9125V10.9125V10.9125V10.9125" fill="white"/>
</svg>
